<?xml version="1.0" encoding="UTF-8"?><svg id="a" xmlns="http://www.w3.org/2000/svg" viewBox="0 0 2458.33 3100.89"><defs><style>.b{fill:none;stroke:#fff;stroke-miterlimit:10;stroke-width:.8px;}</style></defs><path class="b" d="M637.33,2414.67c-1.73-.25-1.73-.74,0-.99,20-3.46,31.11-14.81,35.06-30.86,5.68-22.96,3.95-92.84,5.19-104.2l.25-2.47c.25-2.47.74-2.47.99,0l.25,2.47c1.23,11.36.49,81.24,5.43,104.2,2.22,10.62,8.4,19.75,18.02,25.43,1.73.99,3.46,1.98,5.43,2.72,1.98-.74,3.7-1.73,5.43-2.72,9.14-5.68,15.06-14.81,17.28-25.19,4.94-22.96,4.2-92.84,5.43-104.2l.25-2.47c.25-2.47.74-2.47.99,0l.25,2.47c1.23,11.36-.49,81.24,5.19,104.2,3.95,16.05,15.06,27.41,35.06,30.86,1.73.25,1.73.74,0,.99-10.12,1.98-20,1.98-30.86,3.21-19.26,2.22-29.63,15.31-33.58,30.62-5.68,23.21-3.95,61.73-5.19,73.09l-.25,2.47c-.25,2.47-.74,2.47-.99,0l-.25-2.47c-1.23-11.36-.49-49.88-5.43-72.84-3.46-16.05-15.31-27.9-35.8-30.86-8.89-1.23-18.77-1.73-28.15-3.46Z"/></svg>