<?xml version="1.0" encoding="UTF-8"?><svg id="a" xmlns="http://www.w3.org/2000/svg" viewBox="0 0 2458.33 3100.89"><defs><style>.b{fill:none;stroke:#fff;stroke-miterlimit:10;}</style></defs><path class="b" d="M913.48,1866.36c1.29-1.29,1.94-.97.97.97-15.2,21.35-15.52,42.37-3.88,61.13,6.14,9.7,14.88,20.05,23.61,32.34l1.62,2.26c1.94,2.91,1.62,3.23-.97,1.62l-2.91-1.94c-11.64-9.7-22.64-17.14-32.66-23.29-18.76-11.64-39.46-11-60.8,4.2-1.94,1.29-2.26.97-.97-.97,10.03-14.88,21.67-28.78,34.61-41.4,12.61-12.94,26.2-24.58,41.4-34.93ZM794.79,1942.04c.97,1.62.65,2.26-.97.97-21.67-14.88-42.69-15.2-61.45-3.88-9.7,6.47-21.02,13.91-32.34,23.61l-2.26,1.94c-2.59,2.26-3.88,1.29-1.62-1.29l2.26-2.59c9.7-11.32,16.82-22.64,22.96-32.66,11.64-18.76,11-39.46-4.2-60.8-1.29-1.94-.97-2.26.97-.97,14.88,10.03,28.78,21.67,41.72,34.28,12.61,12.94,24.26,26.52,34.93,41.4ZM716.53,1816.88c2.26.32,2.26.97,0,1.29M761.48,1817.85c-1.94-.32-1.94-.97,0-1.29,26.2-4.53,41.07-19.08,46.25-40.43,2.91-11.32,5.17-24.58,6.79-39.46l.32-3.23c.32-3.23,1.62-3.23,1.94,0l.32,3.23c1.62,14.88,3.88,28.14,6.47,39.46,4.85,21.35,19.73,35.9,45.92,40.43,2.26.32,2.26.97,0,1.29-17.79,3.23-35.9,4.85-53.69,4.85s-36.22-1.62-54.33-4.85ZM818.4,1919.4c-.97.97-1.29.97-2.26,0-10.67-11.64-32.02-28.78-61.77-83.76-2.26-4.2-.65-3.56,1.29-.97,23.93,32.02,41.07,44.31,61.45,44.31s37.52-12.29,61.45-44.31c1.94-2.59,3.56-3.23,1.29.97-29.75,54.98-50.13,72.44-61.45,83.76Z"/></svg>