<?xml version="1.0" encoding="UTF-8"?>
<svg xmlns="http://www.w3.org/2000/svg" version="1.1" viewBox="0 0 2458.3 3100.9">
  <defs>
    <style>
      .cls-1 {
        fill: none;
        stroke: #fff;
        stroke-miterlimit: 10;
      }
    </style>
  </defs>
  <!-- Generator: Adobe Illustrator 28.7.1, SVG Export Plug-In . SVG Version: 1.2.0 Build 142)  -->
  <g>
    <g id="ART">
      <path class="cls-1" d="M1912,699.9c-50.8-29.6-95.6-53.2-149.7-69.3,38.9-40.1,66.3-82.1,96-132.2,3.9-6.6,5.5-11.3-1.8-1.6-42.1,57-72.2,95.4-94.9,104.4-1.6.6-3.2,1.3-4.9,1.8,18.1-43.9,41.6-105.5,54.6-157,1.7-7.1,2.2-11.8-2.2-.5-21.8,52.8-31.2,93.9-55.3,126.8-5.1,6.7-10.2,12.4-15.6,16.9-6.7-19-6.4-52.8-5.1-79,.3-7.1,0-12-1.8-.2-4.9,29.6-8,58.9-7.5,88.5-5.2,2.3-10.6,3.7-16.3,4.2-14-26.1-30.9-50.2-49.6-73.6-7.3-9.3-5.2-5-1.5,1.1,13.9,22.3,30.5,51.6,33.9,71.4-6.7-1.4-13.8-3.7-21.5-7.1-37.1-17.1-65.3-48.4-110-83.9-9.4-7.8-6.6-3.9-1.7,1.5,38.6,41,76.3,78.1,120.1,111.3-.4,0-.8,0-1.1.1-24.5,3.2-69.5-15.7-134-45-11.1-4.9-7.4-1.6-.4,2.6,50.5,29.4,95.2,52.9,149.3,69-38.8,40.1-66.3,82.1-95.7,132.1-4.2,6.7-5.8,11.4,1.5,1.7,42.1-57,72.2-95.4,95.2-104.5.2,0,.5-.2.7-.3-22,50.3-36.9,101.1-50.6,156-1.8,6.8-2.3,11.5,2.2.5,21.7-53.1,31.1-94.2,55.3-126.8,5.2-7,10.4-12.8,15.8-17.3,6.4,19,6.1,52.8,5.2,79-.6,7.2-.4,12.1,1.8.2,4.7-29.5,7.7-58.7,7.2-88.3,5.3-2.4,10.7-3.7,16.3-4.2,14,26.1,30.9,50.1,49.6,73.6,7.3,9.3,5.2,5,1.5-1.1-13.8-22.2-30.4-51.4-33.9-71.2,6.8,1.4,13.9,3.9,21.5,7.3,37,16.7,65.2,48.1,110,83.9,9.3,7.4,6.6,3.6,1.7-1.5-38.7-41.3-76.5-78.4-120.2-111.7.5,0,1-.1,1.5-.2,24.1-3.1,69.1,15.8,133.7,45.1,11.1,4.9,7.4,1.6.8-2.3Z"/>
    </g>
  </g>
</svg>