<svg xmlns="http://www.w3.org/2000/svg" id="Layer_1" data-name="Layer 1" viewBox="0 0 256.51 450" width="256.51" height="450"><metadata><rdf:RDF xmlns:rdf="http://www.w3.org/1999/02/22-rdf-syntax-ns#" xmlns:dc="http://purl.org/dc/elements/1.1/"><rdf:Description><dc:creator>RealFaviconGenerator</dc:creator><dc:source>https://realfavicongenerator.net</dc:source></rdf:Description></rdf:RDF></metadata><defs>
    <style>
      .cls-1 {
        fill: #010101;
      }
    </style>
  </defs><path class="cls-1" d="M217.51,1.6c-.18,2.98-1.66,9.74-2.81,12.8-1.47,3.91-3.85,7.6-5.47,8.44-.76.4-3.57.55-4.2.23-.72-.38-1.88-3.02-2.46-5.62-.12-.52-.23-2.73-.27-5.73-.09-4.7-.11-4.92-.44-5.54-.18-.35-.38-.64-.41-.64-.32,0-.61,1.62-1.01,5.53-.43,4.32-.7,6.09-1.16,7.45-.44,1.34-1.16,2.6-1.92,3.36s-2.35,1.68-2.96,1.68c-.98,0-2.24-1.07-2.83-2.4-.17-.37-.7-2.55-1.21-4.83-1.37-6.29-1.89-7.86-2.93-8.93l-.49-.5-.11.43c-.06.23-.02,1.63.12,3.1.23,2.35.23,3.16.08,6.7-.11,2.23-.26,4.21-.34,4.43-.57,1.51-1.6,2.15-3.45,2.15-1.48,0-1.79-.21-2.35-1.62-.53-1.33-.5-3.53.12-7.54.75-4.9,1.21-9.13,1.01-9.44-.32-.53-.61-.37-1.47.84-1.05,1.51-1.42,2.24-1.73,3.45-.46,1.77-3.22,5.38-5.01,6.51-1.34.84-1.57.76-3.56-1.28-3.47-3.57-5.24-5.86-5.24-6.78,0-.32-.58-.82-.79-.69-.06.05-.12.5-.12,1.02,0,.99.37,2.55,1.37,5.76,1.22,3.89,1.73,6.32,2.58,12.4.86,5.94,1.08,8.14,1.08,10.22,0,2.81-.67,6.02-2.23,10.66-.96,2.86-1.3,3.57-1.8,3.92-.34.21-.41.21-.82,0-.61-.32-1.1-.96-1.1-1.45,0-.46.4-1.16,1.22-2.14.98-1.16,1.53-2.5,1.53-3.71,0-.57-.06-1.05-.15-1.11-.15-.09-.78.43-2.83,2.37-1.53,1.45-4.55,3.83-5.5,4.32-.9.47-2.38.46-2.86-.02-.32-.32-.35-.5-.4-2.44-.06-2.47.15-4.87.67-7.25.5-2.38.9-4.84,1.19-7.41.14-1.19.43-2.84.64-3.66.64-2.43.84-3.56.79-4.69-.05-1.05-.06-1.07-.47-1.11-.24-.03-.53.03-.66.12-.11.11-1.33,2.05-2.69,4.31-2.79,4.64-2.99,4.86-4.37,4.86-1.08,0-1.74-.34-2.87-1.47-1.15-1.13-1.82-2.46-2.06-4.05-.23-1.45-.09-8.19.24-11.9.35-3.82.66-5.02,2.23-8.75.5-1.15.9-2.2.9-2.32,0-.14-.15-.23-.4-.23-.29,0-.9.49-2.43,1.92-2.29,2.18-2.41,2.37-3.36,5.48-1.07,3.51-1.18,4.17-1.24,7.36-.06,3.24-.15,3.66-.98,4.09-.55.29-.93.29-1.31.02-.27-.21-.29-.43-.29-3.94s-.43-9.65-.69-9.94c-.2-.23-.76.05-.98.47-.26.53-1.22,4.41-1.54,6.29-.53,3.21-.78,3.96-1.56,4.99-.27.38-.49.5-.82.5-.55,0-1.36-.72-1.36-1.21,0-.6-1.08-5.73-1.25-5.93-.26-.32-.72-.23-.79.14-.05.2-.11,1.21-.15,2.26-.08,2.15-.32,3.25-1.08,4.84-1.71,3.63-4.28,5.74-7.62,6.23-.89.14-1.15-.06-1.85-1.45-.73-1.45-1.21-2.98-2.29-7.41-.55-2.18-1.24-4.79-1.53-5.8-.78-2.61-1.16-4.99-1.15-7.1.02-.96.02-1.85.02-1.95-.02-.26-.52-.11-1.28.4-.78.52-1.25,1.37-1.56,2.86-.14.67-.44,2.18-.69,3.36-.61,3.01-.82,5.53-.7,8.67.31,8.32.31,7.91-.09,8.49-.18.29-.58.67-.87.84-1.02.6-3.3.9-4.2.55-.21-.08-1.66-.99-3.25-2.03-3.08-2.05-4.29-3.13-4.99-4.5-.31-.61-.73-1.05-1.82-1.91-1.99-1.59-3.68-2.83-4.17-3.04-.37-.17-.44-.15-.78.26-.7.81-.55,1.19,3.3,7.68,3.02,5.12,3.07,5.22,3.18,6.22.08.69.03.86-.26,1.15-.43.43-1.13.37-2.58-.23-.98-.4-4.96-1.39-6.23-1.56-.43-.06-.66-.03-.66.08,0,.09.32.53.7.98.4.43.92,1.22,1.16,1.76.81,1.71.92,2.84.95,9.44.02,5.74,0,6-.34,7.16-.57,2-1.83,4.06-2.52,4.06-.53,0-4.15-1.08-5.45-1.63-2.05-.87-3.33-1.71-4.72-3.07-.7-.69-1.39-1.25-1.51-1.25-.31,0-.63.46-.64.89,0,.2.43,1.22.93,2.29,1.3,2.7,1.77,4.05,2.31,6.6.35,1.73.43,2.41.35,3.12-.15,1.4-.78,4.03-1.07,4.46-.46.7-1.5,1.05-3.05,1.05-1.76-.02-2.4-.23-6.72-2.35-3.15-1.54-3.45-1.73-4.72-2.9-.75-.69-1.92-1.57-2.6-1.99-.92-.53-1.37-.93-1.74-1.48-.29-.41-.61-.78-.75-.79-.38-.09-1.11.73-1.11,1.24,0,.82,1.07,4.44,1.68,5.68.32.67.99,1.7,1.47,2.29,1.3,1.6,2.12,2.93,3.1,5.01.78,1.63,1.04,2.05,2.03,3.05,1.18,1.19,2.49,3.27,2.66,4.18.21,1.16-.31,1.68-1.82,1.82-1.13.11-2.38-.09-7.56-1.24-2.11-.46-3.94-.84-4.06-.84-.18,0-.24.17-.24.66,0,1.33,2.02,3.92,4.06,5.25.52.34,2.7,1.48,4.86,2.57,2.2,1.08,4.12,2.15,4.38,2.41,1.07,1.07,1.4,2.64.76,3.66-.43.7-1.11.93-2.44.84-1.85-.14-3.16-1.07-5.18-3.68-1.95-2.5-7.24-7.53-9.45-8.98-1.15-.75-6.6-3.57-6.69-3.47-.09.09.53,1.83,1.08,3.01.76,1.66,3.39,6.38,4.05,7.27.31.41.75,1.13.98,1.57.24.44.92,1.4,1.51,2.14.58.73,1.18,1.6,1.33,1.94.75,1.7.78,4.75.08,6.22-.6,1.27-1.62,2.32-2.78,2.89-.82.41-1.21.5-2.41.57-2.03.11-3.18-.15-6.2-1.37-3.36-1.34-6.44-2.37-12.37-4.09-5.83-1.7-5.47-1.62-5.59-1.31-.18.47.11,1.28.7,1.97.86.96,4.73,3.99,8,6.2,3.48,2.38,5.31,3.77,7.89,6,4.06,3.5,5.31,4.83,7.24,7.62.5.73,2.06,2.95,3.48,4.93,3.1,4.34,3.62,5.18,3.62,5.85,0,1.4-1.57,2.64-3.07,2.44-.78-.11-6.67-3.18-8.95-4.67-.99-.66-2.4-1.66-3.12-2.26-1.8-1.48-2.12-1.68-2.28-1.42-.18.31-.09.49,1.88,3.34,1.01,1.47,1.89,2.89,1.99,3.16.18.58.03,1.48-.27,1.74-.18.15-.47.15-1.42,0-1.83-.29-2.76-.64-4.44-1.66-.86-.52-1.76-.98-2-1.04-.44-.08-.46-.06-.46.47,0,.64.55,1.82,1.36,2.92.32.41.82,1.15,1.13,1.63,1.01,1.59,2.93,3.21,5.15,4.32,1.45.73,2.84,1.7,3.73,2.6.98.99,1.08,1.48.47,2.06-.37.35-.41.35-2.57.26-3.83-.18-7.13-.95-8.96-2.09-1.79-1.11-2.24-1.3-2.52-1.07-.41.34-.21,1.15.79,3.24,1.66,3.48,1.83,3.73,4.02,6,1.15,1.18,2.92,3.1,3.97,4.28,1.04,1.18,2.66,2.96,3.59,3.97,1.92,2.09,2.75,3.22,3.6,5.01.95,2,.99,3.47.11,4.47-1.07,1.22-2,1.28-3.96.27-1.18-.61-1.54-.9-2.55-2.03-2.08-2.32-3.62-3.83-3.94-3.83-.17,0-.44.09-.61.21-.27.2-.29.43-.29,2.95,0,2.26.08,3.15.44,5.3.52,3.15.82,4.21,1.71,5.85.73,1.37.87,2.28.46,3.08-.32.61-.92.84-2.53.93-1.31.08-1.45.11-1.5.38-.03.18.44,1.45,1.05,2.83,1.33,3.08,1.48,4,.84,5.09-.44.78-1.37,1.33-2.24,1.33-.75,0-4.18-.9-7.54-1.99-2.98-.95-4.35-1.25-4.35-.95,0,.09.14.55.31,1.01.4,1.04,1.4,2.02,2.84,2.73,2.84,1.44,5.94,4.61,7.3,7.51,1.15,2.38,1.59,5.41.96,6.35-.52.76-.84.81-4.89.61-6.72-.32-7.15-.37-9.12-1.24-.58-.26-1.22-.46-1.45-.46-.35,0-.38.05-.29.34.18.63.53,1.21,1.07,1.8,1.15,1.25,5.5,3.71,9.41,5.31,1.07.43,2.21.96,2.55,1.18,1.04.64,4.41,3.42,4.81,3.94.52.69,1.47,3.05,1.57,3.92.11.98-.02,1.4-.6,2.06-.76.87-1.36,1.1-3.25,1.19-1.89.11-4.86.73-5.3,1.11-.49.44-.35,1.02.31,1.4.32.18,1.48,1.11,2.57,2.09,2.84,2.55,4.76,3.45,9.12,4.26,1.21.23,2.06.46,2.24.63.38.35.82,1.68.7,2.15-.12.46-2.53,2.49-4.6,3.83-.84.57-1.8,1.19-2.12,1.4-.76.5-2.53,2.21-2.53,2.44,0,.27.93.2,2.63-.21,1.97-.47,4.75-.7,9.06-.73,3.25-.03,3.39-.02,4.09.34.89.43,1.48,1.27,1.59,2.21.12,1.08-.06,1.65-.89,2.67-.79.98-.86,1.3-.34,1.73.17.14.92.23,2.32.27,1.59.08,2.2.15,2.61.37.81.43,1.36,1.01,1.47,1.54.17.93-.7,2.4-1.83,3.05-.75.44-1.31.52-6.37.99-1.88.17-3.77.41-4.2.53-1.3.38-2.06,1.19-1.25,1.36.2.05.89.11,1.53.15,1.82.14,3.18.46,8.22,1.94,7.13,2.11,7.68,2.28,8.22,2.61.57.35.95.99.95,1.6,0,.53-.52,1.68-.96,2.15-.52.57-1.66,1.07-2.79,1.25-3.63.57-6.75,1.77-9.15,3.5-.53.38-1.1.78-1.25.89-.26.18-.26.2.05.46.27.24.69.27,4.58.26,4.2,0,4.31-.02,7.39-.55,4.35-.78,5.94-.92,7.99-.73.92.09,1.86.26,2.11.38.55.29.9.96.9,1.74,0,.72-.63,1.57-2.21,3.04-1.53,1.39-3.02,2.26-5.21,3.02-1.04.37-2.09.76-2.34.9-.84.43-4.35,4.49-4.11,4.73.03.05.75-.06,1.59-.23.82-.17,2.86-.41,4.49-.53,3.71-.27,5.39-.53,8.43-1.28,1.59-.4,2.9-.82,3.89-1.28,1.83-.86,2.49-1.01,4.25-1.02,2.84,0,4.83.52,6.61,1.73,1.4.96,1.99,1.8,2.12,3.04.09.96-.29,1.91-.9,2.23-1.31.67-2.95.87-4.79.57-2.11-.34-5.76-.57-7.16-.44-1.22.09-2.99.61-3.08.9-.02.08.14.27.38.43.49.34,1.18,1.21,1.92,2.46.66,1.08.72,1.94.23,2.93-.23.49-.49.73-1.01.99-.63.31-.84.32-2.4.24-2.15-.11-2.67-.27-6.11-1.94l-2.83-1.37-.79-1.15c-.43-.63-.89-1.15-.99-1.15-.32,0-.27.55.31,3.51.27,1.47.57,3.04.63,3.48.08.63.35,1.18,1.25,2.6,1.33,2.08,2.35,3.19,3.54,3.83,1.86.99,2.73,2.69,2.15,4.2-.29.79-.66.89-3.77.9l-2.87.03-1.8-.64c-.98-.37-1.99-.75-2.21-.87-.46-.24-4.5-3.65-6.17-5.22-.57-.52-1.66-1.44-2.44-2.02-1.89-1.42-2.95-2.57-3.97-4.31-.47-.79-1.02-1.6-1.24-1.8l-.38-.35-.17.49c-.23.66-.21,1.04.08,2.75.35,2.06,1.1,4.06,2.81,7.59,1.63,3.36,2.53,4.92,3.94,6.86.86,1.19.93,1.37,1.47,3.48.7,2.81.7,3.27,0,4.61-.31.57-.64,1.11-.75,1.21-.29.21-3.71.92-5.8,1.19-1.85.24-2.93.6-5.07,1.68-1.19.6-1.42.76-1.42,1.07,0,.34.08.37,1.1.43.93.08,1.3.2,2.7.92.89.46,2.61,1.28,3.83,1.8,2.18.95,2.24.99,3.6,2.35,1.68,1.7,2.55,2.93,3.15,4.57.38,1.05.41,1.28.26,1.66-.21.52-.82,1.04-1.22,1.04-.95,0-3.88-1.37-4.96-2.31-.78-.69-5.65-3.94-6.37-4.28-.23-.11-.46-.15-.5-.09-.05.05.03,1.21.17,2.58.46,4.57.87,6.75,1.77,9.18.24.69.52,1.73.61,2.32.08.58.18,1.28.21,1.54.06.4.02.5-.31.64-.21.11-.76.18-1.21.18-1.05,0-1.8-.49-3.57-2.37-1.48-1.57-3.18-3.07-4.86-4.31-1.79-1.33-7.77-5.05-8.8-5.48-.53-.21-2.34-1.1-4.02-1.94-1.68-.86-3.44-1.74-3.89-1.97-1.05-.53-3.51-.9-3.88-.58-.57.46-.26.9,1.59,2.32,1.3,1.01,11.74,11.39,13.99,13.91,2.61,2.93,4.06,5.31,4.6,7.54.24,1.07.24,1.11-.05,1.65-.41.79-1.31,1.56-2.08,1.77-.84.23-4.96.09-6.54-.23-.63-.12-1.7-.27-2.37-.32-1.63-.14-3.77-.7-5.25-1.37-.67-.29-2.83-1.15-4.79-1.89-1.99-.73-3.92-1.54-4.34-1.79-1.1-.66-1.21-.69-1.5-.37-.26.27-.26.32,0,.72.15.24.73.87,1.28,1.42.79.79,1.42,1.22,2.99,2.03,2.5,1.3,3.47,2.06,4.81,3.83,1.34,1.8,1.83,2.23,3.56,3.08,2.7,1.36,4.14,2.49,4.83,3.8.92,1.76-.11,2.31-4.26,2.28-2.57-.02-2.87-.06-6.57-.95-.72-.17-1.7-.38-2.18-.47-.81-.14-1.16-.37-3.79-2.32-3.18-2.34-3.73-2.7-3.89-2.53-.12.12.93,3.47,1.3,4.12.14.24,1.34,1.44,2.69,2.64s3.08,2.78,3.86,3.48c.78.72,1.8,1.53,2.29,1.8,1.92,1.1,2.93,2.49,2.93,4.06,0,1.42-.44,1.95-2.23,2.64-1.63.63-2.05.9-3.65,2.43-1.51,1.44-2.34,1.89-3.94,2.23-1.76.37-2.05.67-1.07,1.08.44.18.84.21,1.68.14,1.28-.12,1.5-.18,3.91-1.19,3.34-1.39,5.56-1.77,9.36-1.57,2.96.15,2.89.08,2.87,2.47-.02,1.3-.2,2.93-.66,5.88-.46,2.93-.6,4.23-.5,4.58l.12.49,1.8-1.71c1.24-1.18,2.09-1.85,2.73-2.17,2.5-1.24,4.15-.41,4.15,2.06,0,.89-.08,1.19-.41,1.76-.75,1.28-2.84,3.6-5.42,6.03-4.43,4.17-8.06,7.89-8.26,8.44-.17.49-.15.5.17.4.18-.05,2.64-1.19,5.44-2.52,3.33-1.57,5.28-2.43,5.6-2.43.66,0,1.08.55,1.21,1.59.09.67.03,1.04-.37,2.23-.72,2.12-1.57,3.63-2.81,4.99-2,2.17-2.5,2.95-3.54,5.44-.37.86-.9,2.12-1.21,2.81-.46,1.02-.53,1.31-.4,1.57.2.37.53.38,1.28.08.84-.35,1.83-1.34,2.99-2.98,1.19-1.68,1.89-2.43,3.6-3.86,1.13-.95,1.59-1.45,3.45-3.77.75-.93,1.79-1.79,2.35-1.92.26-.06.47,0,.7.18.43.4,1.3,2.17,1.59,3.24.38,1.4.53,6.25.35,11.38-.08,2.5-.11,4.69-.06,4.87.09.24.18.27.5.2.63-.15.86-.47,1.54-2.17.75-1.86,1.18-3.62,1.3-5.39.15-2.2.93-6.37,1.24-6.72.24-.26,1.89-.99,1.99-.89.02.03.27.43.57.89,1.79,2.79,2.93,6.37,4.31,13.32.29,1.48.64,2.9.76,3.13.12.24.98,1.7,1.91,3.25,1.24,2.08,1.71,2.73,1.79,2.53.06-.14-.21-1.76-.61-3.57-1.22-5.71-1.21-5.56-1.28-12.4-.06-5.33-.03-6.51.21-8.48.32-2.66.49-2.98,1.57-2.98,1.27,0,1.33.08,2.38,2.9,1.42,3.86,1.86,5.53,3.44,13.21.52,2.52,1.13,5.18,1.37,5.91.72,2.24,1.68,3.44,2.46,3.02.29-.17.29-.32.2-5.39-.11-5.16-.11-5.22.23-5.88.57-1.1,2.02-1.92,2.92-1.63,1.02.32,2.28,2.06,3.19,4.41,1.05,2.73,2.28,5.39,4.11,9.01,1.21,2.35,2.02,4.18,2.46,5.51.37,1.1.87,2.43,1.11,2.98.66,1.47,1.94,3.44,2.43,3.73q.44.26.75-.24c.2-.32.27-.67.23-.96-.03-.26-.11-.87-.15-1.37-.06-.5-.34-2.02-.61-3.36-.29-1.34-.57-2.83-.61-3.28-.15-1.22-.92-4.08-1.63-6.02-.64-1.73-1.25-3.07-2.73-5.91-1.19-2.26-1.4-3.16-1.48-6.4-.08-3.15.17-7.1.49-8.15.43-1.4,1.65-2.17,2.72-1.71.76.32,2.81,2.43,3.71,3.82.44.69,1.18,1.99,1.65,2.92,2.12,4.28,3.07,7.99,4.23,16.75.73,5.48,1.39,9.64,1.5,9.51.12-.12,2.06-3.74,2.86-5.34,1.44-2.86,1.88-6.02,1.62-11.25-.09-1.8-.17-4.2-.17-5.34,0-2.31.09-2.57.93-2.57.89,0,2.29,1.59,6.02,6.8,2.57,3.6,3.6,4.78,5.02,5.74,1.01.67,1.16.72,1.16.32,0-.57-3.54-10.83-4.08-11.79-.29-.55-1.85-3.25-3.45-6.02-1.59-2.76-2.98-5.22-3.07-5.45-.14-.37-.11-.49.21-.82.46-.49,1.07-.49,1.63-.02.6.5,6.51,6.78,7.57,8.05.99,1.19,4.08,3.73,4.81,3.97,1.11.37,1.19-.06.37-1.88-.98-2.11-2.4-6.66-2.24-7.15.24-.75,1.36-1.15,2.11-.73,1.21.63,5.53,4.11,8.2,6.58,2.46,2.28,2.47,2.12.58-2.95-1.01-2.69-1.4-3.45-2.7-5.19-1.45-1.95-4.29-6.95-4.29-7.57s.5-1.07,1.45-1.28c.9-.2,1.42-.12,3.82.55,1.01.27,2.52.64,3.36.81,2.64.53,6.34.95,6.34.7,0-.03-.08-.4-.17-.82q-.15-.76-.95-.93c-2.49-.53-6.05-1.79-8.96-3.16q-1.6-.76-4.28-3.5c-3.63-3.73-4.87-5.41-6.89-9.41-.63-1.25-.9-1.97-.9-2.37,0-1.7.95-2.73,1.99-2.18.17.09,1.24,1.27,2.38,2.64,5.19,6.2,8.46,9.27,10.57,9.94,1.3.41,1.63.43,2,.14l.35-.27-.96-1.45c-1.21-1.85-1.45-2.4-3.33-7.53-1.4-3.86-1.57-4.44-1.92-6.64-.21-1.31-.61-3.47-.87-4.76-.37-1.8-.49-2.79-.49-4.12-.02-2.73.32-3.21,2.37-3.21,1.24,0,1.45.09,3.88,1.77,2.28,1.56,2.75,1.73,7.39,2.66,2.37.47,3.97.58,4.67.31l.38-.15-1.15-1.33c-2.03-2.35-2.63-3.97-2.47-6.76.14-2.83.82-4.2,2.52-5.09l1.07-.57h14.84v-.35c0-.5-.29-.73-3.91-3.07-3.22-2.08-3.24-2.09-4.02-3.27-1.51-2.32-2.17-4.29-1.86-5.68.29-1.33.84-2.21,1.59-2.58.82-.4,2.76-.44,3.53-.09.57.27,4.87,3.91,5.47,4.63.46.55,5.73,10.57,6.9,13.13.24.52.69,1.16.98,1.42.58.52,1.51,1.01,1.65.87.05-.05.02-.49-.08-.98-.23-1.3-.73-6.75-1.01-10.78-.27-4.29-.41-5.19-1.16-7.68-1.08-3.59-2.17-9.82-1.85-10.54.2-.44.93-.61,1.63-.38.43.14.73.46,1.48,1.57.96,1.4,4.92,5.6,5.28,5.6.14,0,.18-.5.18-1.91,0-2.26.14-2.67,1.07-3.04.84-.34,1.57-.31,2.83.12.6.2,1.08.35,1.1.34s-.75-2.5-1.71-5.51-1.76-5.63-1.76-5.83c0-.4.63-1.11.95-1.11.64,0,1.15.63,2.32,2.89,1.53,2.9,3.04,4.92,5.45,7.28,2.18,2.12,5.97,5.21,6.55,5.33.47.11,1.27-.15,1.19-.38-.03-.09-.79-.79-1.73-1.57-.92-.76-2.14-1.95-2.72-2.61-1.39-1.63-4.38-6.08-4.63-6.93-.44-1.47-.17-2.47.69-2.47.66,0,1.19.44,1.79,1.47.32.57.95,1.34,1.39,1.73,1.04.92,3.02,2.11,3.76,2.24l.6.11-.34-.67c-.2-.37-.7-1.19-1.15-1.82s-1.4-2.18-2.14-3.44c-1.59-2.73-1.65-2.81-3.13-4.66-1.91-2.37-4.52-5.97-4.92-6.8-.72-1.44-1.39-3.71-1.3-4.4.27-2.06,2.02-1.91,4.55.43,3.3,3.05,7.35,5.5,10.66,6.47.87.26,1.62.44,1.66.4.05-.03-.11-.57-.32-1.18s-.53-1.66-.72-2.34c-.49-1.79-1.33-3.45-2.66-5.27-.64-.89-1.21-1.76-1.25-1.94-.14-.53.06-1.1.55-1.59.38-.38.55-.44,1.33-.44.58,0,1.33.15,2.18.46,1.42.49,7.41,1.86,9.44,2.15,1.07.15,1.56.14,3.13-.09,1.88-.26,2.2-.35,1.79-.5-.12-.05-1.08-.5-2.14-1.04l-1.91-.96-3.15-3.13c-2.6-2.58-3.24-3.31-3.7-4.17-.64-1.25-.93-2.57-.81-3.68.23-1.94.75-2.21,3.82-2.14l2.15.06,2.37.93c1.3.52,2.98,1.19,3.74,1.51,1.57.66,2.95.81,4.05.49.73-.23.93-.6.63-1.18-.09-.15-.98-.75-1.95-1.33-4.6-2.63-6.54-4.03-8.03-5.83-1.07-1.3-2.18-2.21-3.47-2.87-1.4-.7-2.41-1.44-2.75-1.95-.61-1.01-.27-2.47.72-3.08,1.16-.73,1.45-1.39.73-1.71-.21-.11-1.08-.35-1.95-.57-2.99-.75-3.74-1.37-3.88-3.19-.11-1.19.12-1.92.82-2.7.81-.9,1.31-1.02,8.96-2.37,1.82-.32,2.52-.5,2.81-.75l.37-.32-.95-.43c-.99-.46-1.83-1.16-4.38-3.66-1.21-1.18-1.57-1.63-1.57-1.94,0-.75.82-1.19,3.18-1.74,1.19-.29,1.76-.49,1.97-.73.17-.18.53-.96.81-1.71.82-2.28,1.1-2.7,2.55-4,1.54-1.39,2.35-1.95,3.65-2.61,1.39-.7,3.54-2.18,4.54-3.15.82-.79,1.05-1.15,1.27-2,.08-.32.05-.35-.27-.27-.18.05-.49.21-.66.37-.44.4-.82.52-4.63,1.42-1.91.46-4.57,1.15-5.91,1.53-3.63,1.05-4.73,1.22-8.09,1.22-2.61.02-2.96-.02-3.51-.29-1.13-.57-1.6-1.8-1.07-2.81.12-.24.34-.47.46-.53.14-.05,1.53-.09,3.07-.09,3.08,0,3.48-.08,4.23-.87l.41-.44h-1.25c-1.56,0-2.55-.23-4.28-1.01-2.26-1.01-2.58-1.07-5.21-1.13-2.79-.05-3.48-.21-4.81-1.19-1.08-.79-1.71-1.53-1.71-2s1.22-1.92,2.02-2.37c.53-.31.84-.37,1.65-.34.55.02,1.39,0,1.88-.06l.89-.09-.05-.7c-.05-.7-.05-.72-1.07-1.27-.57-.32-1.22-.79-1.45-1.07-.64-.76-2.05-1.73-3.04-2.09-.5-.18-1.51-.43-2.26-.53-1.59-.21-1.88-.46-2.03-1.74-.08-.73-.05-.82.37-1.25.26-.24.69-.49.98-.53s2.34-.15,4.57-.23c3.16-.12,4.4-.23,5.57-.49,1.5-.32,2.37-.64,2.37-.87,0-.31-2.46-1.34-5.8-2.47-1.05-.35-2.37-.9-2.93-1.24-2.02-1.18-3.73-2.95-4.66-4.83-.46-.93-.53-1.25-.55-2.21-.02-1.3.26-1.97.96-2.34.96-.5,2.05-.14,2.78.93,1.44,2.05,2.46,3.31,4.03,4.95,1.31,1.36,1.92,1.88,2.52,2.12.43.18.86.32.96.29.14-.03,0-.67-.47-2.24-.81-2.7-.96-4.18-.6-6.2.35-1.99.5-2.46,1.04-3.07.67-.76,1.48-1.13,2.47-1.13.78,0,.92.06,2.03.89,2.17,1.6,3.54,3.51,4.83,6.7.49,1.21,1.13,2.12,2.44,3.51,1.05,1.11,1.6,1.37,1.89.92.06-.09.12-3.01.12-6.44,0-5.7.03-6.31.27-6.75.81-1.5,2.67-1.3,5.44.58,4.26,2.9,5.48,4.11,9.33,9.16,1.02,1.34,2.02,2.55,2.23,2.69.21.12.82.4,1.36.6.99.35.99.37,1.3.06.4-.4.35-.49-1.59-4.57-2.41-5.04-2.72-5.83-4-10.26-1.51-5.25-1.48-5.05-1.39-6.49.12-2.02,1.15-3.82,2.34-4.12.66-.17,1.83.03,2.34.38.26.2.78.87,1.16,1.51.73,1.28,1.44,2.12,4.31,5.19,1.07,1.15,2.03,2.32,2.18,2.67s.37,1.22.44,1.94c.11.79.32,1.6.57,2.09.66,1.34,2.61,2.84,3.5,2.67.67-.12.47-.79-.75-2.53l-.63-.9v-2.15c0-2.53.14-2.18-2.86-7.7-1.02-1.88-1.94-3.7-2.06-4.05-.15-.46-.21-1.16-.17-2.43.05-1.54.09-1.83.37-2.21.41-.53.82-.52,2.12.09,1.7.78,2.83,1.68,5.73,4.52,1.56,1.51,4,3.76,5.42,4.98,1.44,1.22,2.9,2.57,3.27,2.98s.9,1.01,1.19,1.31c.75.81,2.69,1.73,4.86,2.26,1.95.49,3.15.57,3.71.26.34-.2.34-.21.08-.44-.15-.14-.99-.72-1.88-1.31-2.17-1.45-3.41-2.61-5.01-4.73-.73-.98-2.24-2.92-3.33-4.31-3.42-4.32-3.74-4.87-5.48-9.33-1.21-3.02-1.48-4.32-1.11-5.02.5-.96,5.68-3.82,8.6-4.75,2.63-.84,4.28-1.79,6.15-3.56,1.11-1.04,1.57-1.86,1.66-2.99.05-.5.05-.92,0-.92-.06,0-.81.52-1.66,1.16-2.02,1.5-2.57,1.76-5.57,2.75-4.08,1.33-5.07,1.45-8.89,1.05-3.59-.38-5.27-.87-7.19-2.12-2.05-1.34-2.99-2.72-3.16-4.61-.08-.99-.06-1.1.32-1.54.64-.76,1.44-1.01,3.62-1.08,1.15-.03,2.26,0,2.75.11.44.11,2.47.99,4.49,1.99s3.96,1.86,4.32,1.92l.66.11-.57-1.05c-.9-1.66-1.4-2.34-3.3-4.5-1.6-1.83-3.59-3.85-5.94-6-.46-.43-.96-1.01-1.1-1.33-.6-1.27-.08-3.44.99-4.09.41-.26.7-.31,1.5-.27.82.05,1.28.2,2.7.87,1.37.64,1.88.81,2.55.82.46.02.89-.03.95-.09.12-.12.02-.5-1.19-4.28-1.02-3.21-1.44-3.91-2.6-4.54-.38-.2-.81-.55-.95-.78-.53-.9-.11-2.17.93-2.76.43-.26.53-.26.99-.08.27.12,1.33.92,2.34,1.76,1.79,1.51,3.05,2.32,3.96,2.53.38.09.43.08.34-.17-.4-1.02-1.39-2.41-2.78-3.86-1.99-2.08-2.7-3.39-2.78-5.12-.05-.92,0-1.15.31-1.6.2-.29.67-.69,1.07-.89.72-.37.73-.37,3.16-.18,1.34.09,2.66.14,2.92.08.47-.11,1.37-.76,1.37-1.01,0-.08-.34-.14-.75-.14-1.13,0-1.59-.23-2.35-1.22-.93-1.19-2.05-1.74-4.2-2.06-2.17-.32-3.22-.92-4.23-2.37-.37-.52-2.69-2.6-5.16-4.61-.84-.7-1.47-1.89-1.59-3.08-.08-.69-.03-.92.18-1.16.43-.47.98-.49,2.9-.06,1.24.27,2.34.41,3.37.43,1.66.02,1.94-.09,2.11-.76.09-.34-.05-.55-.87-1.42-1.37-1.47-6.64-8.75-7.1-9.83-.69-1.59.43-3.62,1.97-3.62.79,0,1.34.44,2.35,1.92.95,1.37,3.27,3.05,5.48,3.97,1.28.53,2.03.64,2.57.35.29-.15.23-.24-.96-1.4-1.22-1.19-1.36-1.39-2.83-4.23-2.93-5.68-3.37-6.95-3.21-9.16.08-1.08.52-2.86.86-3.36.11-.17.41-.23,1.1-.23.87.02,1.11.09,2.49.84,3.02,1.62,3.97,2.47,5.83,5.16,1.7,2.46,2.11,2.9,3.02,3.33.41.2.76.34.79.32.02-.03-.23-.69-.55-1.48-.34-.82-.9-2.76-1.31-4.5-.89-3.8-1.45-5.8-2.21-7.83-.89-2.35-1.16-5.12-.6-6.15.24-.46,1.27-.9,2.11-.9.9,0,3.33.61,4.5,1.13,2.14.95,2.83,1.65,5.38,5.54,2.17,3.3,3.96,5.39,4.6,5.39.5,0,1.11-.27,1.11-.5,0-.11-.27-.89-.63-1.71-.34-.84-.82-2.24-1.07-3.13-.72-2.49-1.66-5.34-2.06-6.12-.18-.38-1.04-1.59-1.91-2.67-1.94-2.46-2.64-3.48-3.22-4.73-.4-.84-.46-1.13-.4-1.88.14-2.03,1.36-2.64,6.54-3.3,3.08-.4,5.1-1.19,7.85-3.1.66-.47,1.62-.99,2.14-1.19.76-.27.95-.4.98-.72l.05-.38-2.72-.06c-3.01-.09-3.82-.27-5.65-1.28-1.83-1.02-2.15-1.89-1.11-3.01.79-.87,2.17-1.53,4.03-1.92.82-.18,1.68-.43,1.91-.55.81-.41,1.88-1.83,2.21-2.93.12-.41.09-.4-1.44.29-1.47.67-2.86.92-4.73.86-1.85-.08-2.84-.41-3.66-1.27-.4-.4-.52-.69-.58-1.27-.09-.98.03-1.19,2.24-3.85,2.03-2.43,2.58-3.36,2.72-4.61.09-.86-.18-2.57-.41-2.57-.08,0-.46.66-.86,1.47-.89,1.8-1.66,2.83-2.61,3.36-.41.23-1.04.63-1.4.89l-.66.47-3.12.05c-3.7.06-4.6-.11-5.1-.93-.6-.96-.34-2.55.6-3.73,1.07-1.36,3.68-3.99,4.44-4.47.41-.26,2.14-.99,3.82-1.6,3.8-1.39,4.28-1.65,4.79-2.7.47-.95.55-1.89.14-1.73-.93.4-3.34,1.18-4.28,1.36-1.62.35-6.15.86-7.5.86-4.02-.03-6.95-1.59-7.5-3.99-.09-.37-.26-1.13-.38-1.68-.29-1.3-1.15-3.5-1.37-3.5-.11,0-.52.35-.93.78-1.48,1.53-4.15,2.89-5.68,2.89-1.65,0-3.04-1.16-3.42-2.81-.15-.69-.14-1.01.08-1.95.31-1.37,1.16-8.48,1.27-10.52.06-.99,0-1.82-.15-2.6-.32-1.5-1.08-3.62-1.53-4.17l-.37-.44-.09,1.6ZM132.33,35.18c1.37.34,2.75.75,3.05.9s1.66,1.34,3.02,2.67c2.61,2.52,2.57,2.46,5.38,7.09l.78,1.28v1.85c0,1.02-.08,3.05-.15,4.55-.17,2.84-.09,2.53-1.59,7.65-.23.75-.95,2.58-1.62,4.11-1.39,3.12-2.14,5.18-3.05,8.46-.66,2.4-1.04,3.15-1.86,3.77-.9.69-1.45.75-4.47.47-3.3-.27-4.25-.5-7.64-1.74-3.21-1.18-4.37-1.5-5.86-1.62-2.21-.17-3.62.27-6.86,2.17-2.43,1.42-5.09,4.43-6.46,7.31-1.15,2.38-1.53,3.97-1.62,6.8-.08,2.14-.03,2.55.32,4.32.9,4.4,3.16,10.08,5.34,13.41,2.84,4.32,3.31,4.93,6.32,8.23,2.95,3.22,3.85,4.73,5.3,8.87.92,2.6,2.4,5.5,3.68,7.19.55.73,1.66,1.95,2.47,2.7,6.05,5.54,7.91,7.18,9.04,7.96,1.44.98,2,1.53,3.27,3.19.93,1.21.96,1.37.67,2.79-.17.84-.17.92.15,1.22l.34.34,1.71-.58c3.28-1.13,9.02-3.83,11.35-5.34.67-.44,1.86-1.34,2.66-2.02,4.35-3.66,4.87-4.03,8.95-6.25,2.69-1.47,3.85-2.18,5.89-3.62.55-.4,1.82-1.08,2.83-1.53,2.15-.96,3.42-1.8,4.84-3.16,1.4-1.36,2.6-3.18,3.42-5.25.81-2.08,1.21-2.69,2.09-3.31.75-.5,2.58-1.37,2.92-1.37.75,0,.89,1.89.38,5.01-.35,2.17-1.91,9.02-2.23,9.77l-.2.5-.92-.47c-1.31-.66-1.57-.61-3.12.53-1.36.99-3.3,2.23-6.87,4.41-2.38,1.45-3.76,2.46-6.06,4.46-1.91,1.65-3.63,2.99-5.19,4.03-.55.37-2.53,1.8-4.43,3.21-5.15,3.8-8.08,5.88-8.93,6.29-.41.21-2.44.98-4.5,1.71s-4,1.42-4.32,1.54c-1.15.46-1.4.35-4.09-1.45-1.37-.92-2.95-2.08-3.5-2.57-.95-.87-4.05-4.9-4.99-6.52-4.03-6.81-3.88-6.6-7.36-10.52-1.8-2.02-3.89-4.44-4.66-5.36-.76-.93-3.27-3.63-5.57-6.03s-5.57-5.97-7.27-7.94c-3.54-4.12-4.29-4.86-6.57-6.4-.9-.63-1.91-1.39-2.23-1.71-.75-.75-1.15-.87-1.27-.41-.18.73-.06,1.28.69,3.08.84,2.03,2.02,4.17,5.41,9.94,2.52,4.28,2.5,4.25,3.92,6.02,1.19,1.47,2.08,3.12,2.58,4.75.29.93.37,1.5.37,2.98v1.83l-1.66,4.58c-3.88,10.72-4.41,12.11-5.62,14.51-1.54,3.07-2.81,5.93-4.25,9.54-1.76,4.44-2.49,6.2-4.15,9.74-1.68,3.6-3.41,7.53-4.34,9.8l-.6,1.45.02,3.44c0,3.04.05,3.57.34,4.63.86,3.07,4.87,11.12,8.25,16.52.63,1.01,2.2,3.37,3.47,5.27,1.28,1.89,3.79,5.7,5.57,8.48,1.79,2.76,5.25,7.99,7.71,11.61,5.71,8.41,9.9,14.66,10.8,16.11.84,1.39,4.6,11.12,5.3,13.74.95,3.56,1.39,7.21,1.39,11.44s-.76,6.18-4.66,11.09c-.93,1.18-2.18,2.79-2.78,3.6-1.27,1.68-2.35,2.73-4.98,4.83-2.73,2.18-4.08,3.6-5.88,6.25-.87,1.28-2.02,2.87-2.55,3.53-.93,1.16-7.15,7.3-12.87,12.72-4,3.77-6.41,6.55-13.53,15.58-8.57,10.84-10.41,13.09-13.38,16.19-5.6,5.89-8.58,9.83-10.6,14.06-.61,1.27-.73,1.68-.99,3.57-.46,3.12-.67,7.33-.55,10.77.2,6.32.49,9.01,1.51,14.63.61,3.36.7,3.7,1.33,5.63.26.78.43,1.48.37,1.57-.05.09-.35.29-.67.44l-.58.31-1.15-.66c-.63-.37-1.48-.89-1.89-1.16-1.15-.78-2.81-2.57-3.53-3.77-.64-1.1-.78-1.47-1.4-3.79-.47-1.74-1.59-3.92-3.51-6.83-1.37-2.09-2.05-2.92-3.86-4.79-1.21-1.25-2.41-2.6-2.67-2.96-.63-.93-1.6-2.89-2.11-4.28-.69-1.91-.63-2.24.9-5.27.73-1.44,1.51-2.73,1.71-2.92.21-.17.78-.47,1.25-.67,2.4-.99,7.31-3.42,8.35-4.14,2.05-1.4,3.37-3.07,6.18-7.7,2.72-4.46,4.81-7.41,10.99-15.35,2.35-3.02,3.62-4.92,6.03-9.09,2.49-4.29,4.81-7.99,9.18-14.66,3.05-4.67,3.74-5.85,5.48-9.32,2.05-4.09,3.19-5.99,4.46-7.41.4-.46,1.91-1.82,3.33-3.04,4.54-3.86,8.2-7.07,9.7-8.48.79-.75,2.24-1.99,3.21-2.76,1.79-1.44,2.2-1.83,2.63-2.52.35-.6.72-1.8.89-3.01.14-1.07.14-1.13-.47-2.9-1.73-5.02-2.73-6.83-6.22-11.16-.99-1.24-2.32-3.04-2.95-4-1.48-2.26-2.93-3.99-5.65-6.7-3.66-3.66-6.66-6.06-14.34-11.54-3.91-2.79-5.63-4.2-7.86-6.35-1.01-.98-2.2-2.05-2.64-2.4-.43-.34-3.73-3.59-7.33-7.22-3.59-3.62-7.18-7.12-7.97-7.76-3.63-2.89-5.57-5.62-6.96-9.79-.43-1.27-.43-1.37-.49-5.45-.05-3.66-.02-4.37.26-6.03,1.45-8.44,3.08-11.9,8.02-16.81,2.37-2.37,3.16-3.51,3.7-5.3.21-.72.76-2.5,1.21-3.97,1.1-3.54,2.15-7.65,2.44-9.54.31-1.86.32-10.8.06-21.38-.12-5.1-.12-7.38.02-8.86.09-1.1.23-2.95.31-4.12.12-1.97.18-2.32.92-4.58.44-1.34,2.41-6.46,4.37-11.36,2.9-7.22,3.7-9.09,4.23-9.77,1.05-1.39,7.94-8.23,10.4-10.31,1.25-1.05,3.41-2.81,4.79-3.88s3.15-2.43,3.91-3.01c1.54-1.21,5.3-5.42,7.86-8.86,3.33-4.44,5.54-7.6,5.83-8.29.15-.4.6-1.99.98-3.54l.7-2.83.29-5.04.27-5.04.84-2.47c1.65-4.86,3.16-7.31,5.79-9.47,2.64-2.17,4.34-3.45,4.99-3.77.78-.4,6-2.18,6.96-2.38.86-.18,1.62-.08,4.49.63ZM199.67,50.15c1.42.23,2.53.64,4.98,1.82,2.06.99,2.18,1.08,3.02,2.11,1.36,1.65,2.29,3.34,2.86,5.1.27.87.69,2.18.93,2.95.64,2.06.79,3.19.72,5.62-.06,1.66-.17,2.55-.47,3.77-.23.89-.55,2.35-.72,3.28-.18.92-.46,2.02-.61,2.44-.32.92-2.14,5.18-2.46,5.76-.35.69-9.32,9.9-9.61,9.9-.27,0-3.41-2.32-4.4-3.27-.29-.26-1.07-1.27-1.76-2.23-.67-.96-1.76-2.28-2.4-2.92-1.08-1.08-1.34-1.25-3.76-2.43-2.63-1.28-3.31-1.5-4.21-1.31-.49.11-.57.24-2.06,3.27-1.39,2.81-2.44,4.67-5.22,9.19-.43.7-.89,1.63-1.01,2.06-.11.41-.6,2.15-1.07,3.83-.47,1.7-.92,3.53-.99,4.05-.08.53-.18,6.31-.24,12.81-.11,12.54-.09,12.45-.81,12.83-.6.31-1.5.18-2.02-.27-.46-.4-.49-.53-.61-1.8-.06-.75-.2-1.74-.31-2.2-.09-.47-.21-2.81-.27-5.42-.08-3.83-.14-4.66-.35-5.04-.26-.49-1.15-1.39-1.25-1.28-.23.23-.73,3.86-.89,6.23-.12,2.17-.12,3.31.03,5.12.29,3.47.37,8.11.15,8.64-.11.24-.86,1.1-1.68,1.89-1.16,1.13-1.77,1.59-2.76,2.08-.7.37-1.48.78-1.71.95-.58.41-1.34.38-2.15-.09-2.17-1.27-2.81-3.31-3.91-12.61-1.05-8.87-1.18-9.42-2.4-10.34q-.63-.49-1.21,1.18c-.63,1.76-.67,4.54-.15,8.99.23,1.99.4,4.26.4,5.42,0,2.57.23,5.19.6,6.73.43,1.82.52,3.05.32,4.5-.21,1.62-.55,2.37-1.3,3.04-1.1.96-1.6,1.08-4.52,1.15l-2.61.05-1.05-1.33c-1.31-1.68-3.04-3.3-5.25-4.96-2.08-1.57-2.95-2.49-4.03-4.29-1.79-2.93-1.63-2.31-1.74-7.33-.06-2.43-.05-5.27.03-6.31l.14-1.91,1.08-2.14c2.89-5.73,5.48-10.03,7.19-11.96.58-.63,17.94-14.46,19.59-15.59,1.66-1.13,3.12-1.95,4.66-2.61.63-.26,1.71-.86,2.41-1.31,1.63-1.05,5.6-4.14,6.35-4.92.31-.32,1.16-1.54,1.91-2.72s1.76-2.67,2.21-3.31c.47-.66,1.28-2.02,1.8-3.02,1.6-3.15,4.26-10.19,4.89-12.98.11-.46.35-1.19.53-1.6.4-.9,2.46-3.68,3.25-4.37,1.15-1.01,2.84-1.54,6.92-2.18,2.44-.4,3.86-.63,4.49-.76.58-.11,1.53-.09,2.5.08ZM193.03,128.75c.24.4.78,1.27,1.19,1.94l.76,1.22-.08,2.14c-.09,2.84.11,5.28.67,8.17.72,3.57.67,3.89-.98,6.95-1.4,2.63-1.71,3.51-2.17,6.49-.37,2.38-.93,4.67-1.85,7.35-1.51,4.46-1.76,4.96-3.73,7.62-1.11,1.53-1.94,3.13-2.89,5.7-.96,2.6-1.48,3.62-3.28,6.58-2.86,4.66-3.36,5.42-3.76,5.59-.21.08-1.04.17-1.85.2-1.79.05-1.57.2-3.77-2.72-.89-1.18-2.06-2.69-2.6-3.34-1.24-1.54-1.48-1.97-2.92-5.09-1.1-2.4-1.95-3.91-4.25-7.53-.5-.79-1.34-2.24-1.85-3.21-.81-1.51-.95-1.92-1.08-3.01-.2-1.56-.37-1.95-1.6-3.85-.55-.84-1.01-1.57-1.01-1.62,0-.26,2.96-3.88,3.3-4.03.75-.34,3.42-.93,4.21-.93.49,0,.95.09,1.16.24.78.53,2.29,3.21,4,7.01,3.25,7.27,3.92,8.55,4.89,9.18.69.46.6.49,2.11-.76,1.37-1.13,2.35-2.35,3.31-4.14.41-.76,1.39-2.55,2.18-3.97,3.3-5.91,4.5-8.84,5.28-12.78.37-1.82.47-2.11,1.73-4.52l1.33-2.6.12-2.95c.06-1.63.18-3.45.26-4.03.09-.6.15-1.56.17-2.15,0-.87.06-1.16.35-1.53.53-.73,1.97-2.35,2.08-2.35.05,0,.29.34.53.73ZM127.84,159.24c.26.18,1.36,1.19,2.46,2.23,2.06,1.95,3.34,2.79,5.63,3.73,2.15.86,4.79.87,6.25.02,2.35-1.37,8.14-3.02,9.61-2.73.24.05.6.26.79.49.2.21.9.99,1.56,1.71,1.3,1.4,1.83,2.35,2.03,3.54.09.61.03,1.04-.34,2.31-.49,1.71-1.28,3.41-3.3,7.04-2.03,3.68-5.71,10.78-6.52,12.6-1.13,2.55-2.67,6.8-2.99,8.23-.4,1.83-.52,4.34-.31,6.26.2,1.65,1.24,5.57,2.23,8.41.32.89,1.21,2.95,1.99,4.58.78,1.65,2,4.58,2.72,6.57,6.34,17.48,6.32,17.44,7.65,22.98,1.5,6.22,2.57,10.09,3.7,13.41,1.19,3.54,1.51,4.79,2.41,9.35.99,5.04,1.24,7.15,1.63,13.51.18,2.95.12,4.54-.26,6.72-.55,3.15-1.66,7.5-2.11,8.17-.14.2-1.66,1.62-3.41,3.15-3.51,3.07-15.04,14.52-20.26,20.14-4.54,4.87-6.31,6.6-9.79,9.54-6.92,5.85-9.91,8.52-19.53,17.47-15.13,14.06-15.74,14.66-20.51,19.71-3.82,4.05-4.6,5.05-5.89,7.6-.63,1.24-1.25,2.63-1.37,3.08-.37,1.33-.5,10.2-.2,12.52.29,2.12,1.76,9.41,2.34,11.56l.43,1.56-.32.43c-.18.23-.5.49-.73.58-.35.12-.47.08-.84-.31-.24-.26-1.59-2.21-2.99-4.35-3.76-5.74-5.36-9.15-5.71-12.11-.18-1.51-.43-1.92-3.48-5.76-1.31-1.63-2.52-3.28-2.69-3.66-.67-1.48-.47-3.86.44-5.44.55-.93,2.15-2.63,2.79-2.96.32-.15,1.42-.46,2.44-.67,2.14-.46,3.59-1.07,5.42-2.29,4.41-2.95,8.34-6.7,12.4-11.9,3.5-4.46,6.38-7.83,10.6-12.4,7.18-7.77,11.42-13.51,14.14-19.13,1.37-2.83,4.21-7.68,5.5-9.39,1.01-1.33,5.96-6.63,7.25-7.74,1.4-1.21,2.7-2.11,4.64-3.21,1.22-.69,2.9-1.92,6.14-4.52,2.46-1.97,4.78-3.94,5.18-4.38,1.07-1.18,1.51-2.28,2.06-5.07.43-2.21.47-2.63.4-4.43-.09-2.12-.75-7.86-1.1-9.62-.26-1.27-1.48-3.83-2.83-5.88-.76-1.16-1.62-2.12-4.28-4.73-5.59-5.53-7.54-8.15-20.14-27.03-8.23-12.35-9.36-14.11-10.58-16.55-.75-1.51-1.66-3.47-2.03-4.35-.72-1.74-2.21-6.38-2.53-7.88-.31-1.34-.26-5.16.06-6.95,1.15-6.14,2.37-8.4,7.13-13.13,3.13-3.12,6.05-5.8,7.1-6.57,1.8-1.3,3.83-5.39,5.1-10.31.57-2.12,2.72-11.97,2.84-12.95.18-1.34.9-1.63,1.99-.79Z"></path></svg>