<?xml version="1.0" encoding="UTF-8"?>
<svg xmlns="http://www.w3.org/2000/svg" version="1.1" viewBox="0 0 2458.3 3100.9">
  <defs>
    <style>
      .cls-1 {
        fill: none;
        stroke: #fff;
        stroke-miterlimit: 10;
      }
    </style>
  </defs>
  <!-- Generator: Adobe Illustrator 28.7.1, SVG Export Plug-In . SVG Version: 1.2.0 Build 142)  -->
  <g>
    <g id="FASHION">
      <path class="cls-1" d="M1243.5,1575.6c-2-2-1.5-2.7,1.1-1.5,34.8,16,62,9.2,87.9-10.3,13.4-10.5,26.6-24.7,40.6-41.1l3-3.6c3-3.6,3.8-3.1,1.5,1.1l-2.3,4.1c-10.2,19-19.1,36.1-24.1,52.4-9.3,30.9-5.8,58.7,21.6,85.4,2.4,2.2,1.9,3-1.1,1.5-23.8-10.7-46.6-23.5-67.7-38-21.5-14.8-41.7-31.4-60.6-50ZM1394.9,1420.8c-9.6-8.3-19.2-16.5-28.2-25.6-2-2-1.5-2.7,1.1-1.5,34.8,16,65.4,10.9,87.9-10.3,32.2-30.5,105.6-140,119.7-156.3l3-3.6c3-3.6,3.8-3.1,1.5,1.1l-2.3,4.1c-10.2,19-87.5,125.9-103.1,167.7-11,29.2-5.8,58.7,21.6,85.4,2.4,2.2,1.9,3-1.1,1.5-11.3-4.9-22.5-10.9-33.3-16.6,8.6,85.5,3.9,166.5-5,253.6-.9,9.6-2.4,15.9-3.1-.4-3.2-78.5,3.9-135.8-12.1-189.1-15.1-50.5-43-72.4-99.1-68-55.5,4.3-106.4,31.6-180.8,56.8-15.4,5.2-10.1,1.5-1.5-2.7,78.1-39.7,151.9-73.2,234.8-96Z"/>
    </g>
  </g>
</svg>